<svg xmlns="http://www.w3.org/2000/svg" version="1.1" xmlns:xlink="http://www.w3.org/1999/xlink" width="2000" height="356" viewBox="0 0 2000 356"><svg xml:space="preserve" width="2000" height="356" data-version="2" data-id="lg_qllIjO097pZZr9XXhl" viewBox="0 0 558 356" x="0" y="0"><rect width="100%" height="100%" fill="transparent"></rect><path d="M181.38 192q.33 1.34.33 3.36 0 1.93-.33 3.36h-3.36q.33 1.34.33 3.36 0 1.93-.33 3.36h-16.8q-.34-1.43-.34-3.36 0-2.02.34-3.36h-3.36q-.34-1.43-.34-3.36 0-2.02.34-3.36h-3.36q-.34-1.43-.34-3.36 0-2.02.34-3.36-.34-1.43-.34-3.36 0-2.02.34-3.36-.34-1.43-.34-3.36 0-2.02.34-3.36h3.36q-.34-1.43-.34-3.36 0-2.02.34-3.36h3.36q-.34-1.43-.34-3.36 0-2.02.34-3.36h16.8q.33 1.34.33 3.36 0 1.93-.33 3.36h3.36q.33 1.34.33 3.36 0 1.93-.33 3.36h-6.72q-.34-1.43-.34-3.36 0-2.02.34-3.36h-10.08q.33 1.34.33 3.36 0 1.93-.33 3.36h-3.36q.33 1.34.33 3.36 0 1.93-.33 3.36.33 1.34.33 3.36 0 1.93-.33 3.36.33 1.34.33 3.36 0 1.93-.33 3.36h3.36q.33 1.34.33 3.36 0 1.93-.33 3.36h10.08q-.34-1.43-.34-3.36 0-2.02.34-3.36Z"></path><rect width="27.55" height="47.04" x="-13.78" y="-23.52" fill="none" rx="0" ry="0" transform="translate(168.44 182.42)"></rect><path d="M215.31 188.64q0 1.93-.33 3.36h-2.52q.33 1.34.33 3.36 0 1.93-.33 3.36h-4.2q.33 1.34.33 3.36 0 1.93-.33 3.36h-13.44q-.34-1.43-.34-3.36 0-2.02.34-3.36h-4.2q-.34-1.43-.34-3.36 0-2.02.34-3.36h-2.52q-.34-1.43-.34-3.36 0-2.02.34-3.36h2.52q-.34-1.43-.34-3.36 0-2.02.34-3.36h4.2q-.34-1.43-.34-3.36 0-2.02.34-3.36h13.44q.33 1.34.33 3.36 0 1.93-.33 3.36h4.2q.33 1.34.33 3.36 0 1.93-.33 3.36h2.52q.33 1.34.33 3.36m-7.05 3.36q-.34-1.43-.34-3.36 0-2.02.34-3.36h-2.52q-.34-1.43-.34-3.36 0-2.02.34-3.36h-8.4q.33 1.34.33 3.36 0 1.93-.33 3.36h-2.52q.33 1.34.33 3.36 0 1.93-.33 3.36h2.52q.33 1.34.33 3.36 0 1.93-.33 3.36h8.4q-.34-1.43-.34-3.36 0-2.02.34-3.36Z"></path><rect width="27.55" height="33.6" x="-13.78" y="-16.8" fill="none" rx="0" ry="0" transform="translate(202.03 189.14)"></rect><path d="M231.27 195.36q0 1.93-.33 3.36h8.4q.33 1.34.33 3.36 0 1.93-.33 3.36H225.9q-.34-1.43-.34-3.36 0-2.02.34-3.36h-4.2q-.34-1.43-.34-3.36 0-2.02.34-3.36-.34-1.43-.34-3.36 0-2.02.34-3.36-.34-1.43-.34-3.36 0-2.02.34-3.36-.34-1.43-.34-3.36 0-2.02.34-3.36h6.72q.33 1.34.33 3.36 0 1.93-.33 3.36.33 1.34.33 3.36 0 1.93-.33 3.36.33 1.34.33 3.36 0 1.93-.33 3.36h2.52q.33 1.34.33 3.36m17.31-16.8q.33 1.34.33 3.36 0 1.93-.33 3.36.33 1.34.33 3.36 0 1.93-.33 3.36.33 1.34.33 3.36 0 1.93-.33 3.36.33 1.34.33 3.36 0 1.93-.33 3.36h-6.72q-.34-1.43-.34-3.36 0-2.02.34-3.36h-2.52q-.34-1.43-.34-3.36 0-2.02.34-3.36h2.52q-.34-1.43-.34-3.36 0-2.02.34-3.36-.34-1.43-.34-3.36 0-2.02.34-3.36-.34-1.43-.34-3.36 0-2.02.34-3.36h6.72q.33 1.34.33 3.36 0 1.93-.33 3.36"></path><rect width="27.55" height="33.6" x="-13.78" y="-16.8" fill="none" rx="0" ry="0" transform="translate(235.63 189.14)"></rect><path d="M282.18 178.56q.33 1.34.33 3.36 0 1.93-.33 3.36h-6.72q-.34-1.43-.34-3.36 0-2.02.34-3.36h-5.88q.33 1.34.33 3.36 0 1.93-.33 3.36h-2.52q.33 1.34.33 3.36 0 1.93-.33 3.36.33 1.34.33 3.36 0 1.93-.33 3.36h5.04q.33 1.34.33 3.36 0 1.93-.33 3.36h-16.8q-.34-1.43-.34-3.36 0-2.02.34-3.36h5.04q-.34-1.43-.34-3.36 0-2.02.34-3.36-.34-1.43-.34-3.36 0-2.02.34-3.36-.34-1.43-.34-3.36 0-2.02.34-3.36h-5.04q-.34-1.43-.34-3.36 0-2.02.34-3.36h8.4q.33 1.34.33 3.36 0 1.93-.33 3.36h3.36q-.34-1.43-.34-3.36 0-2.02.34-3.36h12.6q.33 1.34.33 3.36 0 1.93-.33 3.36z"></path><rect width="27.55" height="33.6" x="-13.78" y="-16.8" fill="none" rx="0" ry="0" transform="translate(269.24 189.14)"></rect><path d="M314.43 195.36q0 1.93-.33 3.36h-3.36q.33 1.34.33 3.36 0 1.93-.33 3.36h-18.48q-.34-1.43-.34-3.36 0-2.02.34-3.36h15.12q-.34-1.43-.34-3.36 0-2.02.34-3.36h-13.44q-.34-1.43-.34-3.36 0-2.02.34-3.36h-3.36q-.34-1.43-.34-3.36 0-2.02.34-3.36h3.36q-.34-1.43-.34-3.36 0-2.02.34-3.36h18.48q.33 1.34.33 3.36 0 1.93-.33 3.36H297.3q.33 1.34.33 3.36 0 1.93-.33 3.36h13.44q.33 1.34.33 3.36 0 1.93-.33 3.36h3.36q.33 1.34.33 3.36"></path><rect width="24.19" height="33.6" x="-12.1" y="-16.8" fill="none" rx="0" ry="0" transform="translate(302.83 189.14)"></rect><path d="M349.71 181.92q0 1.93-.33 3.36.33 1.34.33 3.36 0 1.93-.33 3.36h-17.64q.33 1.34.33 3.36 0 1.93-.33 3.36h14.28q.33 1.34.33 3.36 0 1.93-.33 3.36h-16.8q-.34-1.43-.34-3.36 0-2.02.34-3.36h-4.2q-.34-1.43-.34-3.36 0-2.02.34-3.36h-2.52q-.34-1.43-.34-3.36 0-2.02.34-3.36h2.52q-.34-1.43-.34-3.36 0-2.02.34-3.36h4.2q-.34-1.43-.34-3.36 0-2.02.34-3.36h16.8q.33 1.34.33 3.36 0 1.93-.33 3.36h3.36q.33 1.34.33 3.36m-7.05 3.36q-.34-1.43-.34-3.36 0-2.02.34-3.36h-10.92q.33 1.34.33 3.36 0 1.93-.33 3.36z"></path><rect width="27.55" height="33.6" x="-13.78" y="-16.8" fill="none" rx="0" ry="0" transform="translate(336.44 189.14)"></rect><path d="M382.98 185.28q.33 1.34.33 3.36 0 1.93-.33 3.36.33 1.34.33 3.36 0 1.93-.33 3.36h-3.36q.33 1.34.33 3.36 0 1.93-.33 3.36h-20.16q-.34-1.43-.34-3.36 0-2.02.34-3.36h-3.36q-.34-1.43-.34-3.36 0-2.02.34-3.36h6.72q.33 1.34.33 3.36 0 1.93-.33 3.36h13.44q-.34-1.43-.34-3.36 0-2.02.34-3.36-.34-1.43-.34-3.36 0-2.02.34-3.36h-16.8q-.34-1.43-.34-3.36 0-2.02.34-3.36h-3.36q-.34-1.43-.34-3.36 0-2.02.34-3.36-.34-1.43-.34-3.36 0-2.02.34-3.36h3.36q-.34-1.43-.34-3.36 0-2.02.34-3.36h20.16q.33 1.34.33 3.36 0 1.93-.33 3.36h3.36q.33 1.34.33 3.36 0 1.93-.33 3.36h-6.72q-.34-1.43-.34-3.36 0-2.02.34-3.36h-13.44q.33 1.34.33 3.36 0 1.93-.33 3.36.33 1.34.33 3.36 0 1.93-.33 3.36h16.8q.33 1.34.33 3.36 0 1.93-.33 3.36z"></path><rect width="27.55" height="47.04" x="-13.78" y="-23.52" fill="none" rx="0" ry="0" transform="translate(370.04 182.42)"></rect><path d="M416.91 188.64q0 1.93-.33 3.36h-2.52q.33 1.34.33 3.36 0 1.93-.33 3.36h-4.2q.33 1.34.33 3.36 0 1.93-.33 3.36h-13.44q-.34-1.43-.34-3.36 0-2.02.34-3.36h-4.2q-.34-1.43-.34-3.36 0-2.02.34-3.36h-2.52q-.34-1.43-.34-3.36 0-2.02.34-3.36h2.52q-.34-1.43-.34-3.36 0-2.02.34-3.36h4.2q-.34-1.43-.34-3.36 0-2.02.34-3.36h13.44q.33 1.34.33 3.36 0 1.93-.33 3.36h4.2q.33 1.34.33 3.36 0 1.93-.33 3.36h2.52q.33 1.34.33 3.36m-7.05 3.36q-.34-1.43-.34-3.36 0-2.02.34-3.36h-2.52q-.34-1.43-.34-3.36 0-2.02.34-3.36h-8.4q.33 1.34.33 3.36 0 1.93-.33 3.36h-2.52q.33 1.34.33 3.36 0 1.93-.33 3.36h2.52q.33 1.34.33 3.36 0 1.93-.33 3.36h8.4q-.34-1.43-.34-3.36 0-2.02.34-3.36Z"></path><rect width="27.55" height="33.6" x="-13.78" y="-16.8" fill="none" rx="0" ry="0" transform="translate(403.63 189.14)"></rect><path d="M432.87 195.36q0 1.93-.33 3.36h8.4q.33 1.34.33 3.36 0 1.93-.33 3.36H427.5q-.34-1.43-.34-3.36 0-2.02.34-3.36h-4.2q-.34-1.43-.34-3.36 0-2.02.34-3.36-.34-1.43-.34-3.36 0-2.02.34-3.36-.34-1.43-.34-3.36 0-2.02.34-3.36-.34-1.43-.34-3.36 0-2.02.34-3.36h6.72q.33 1.34.33 3.36 0 1.93-.33 3.36.33 1.34.33 3.36 0 1.93-.33 3.36.33 1.34.33 3.36 0 1.93-.33 3.36h2.52q.33 1.34.33 3.36m17.31-16.8q.33 1.34.33 3.36 0 1.93-.33 3.36.33 1.34.33 3.36 0 1.93-.33 3.36.33 1.34.33 3.36 0 1.93-.33 3.36.33 1.34.33 3.36 0 1.93-.33 3.36h-6.72q-.34-1.43-.34-3.36 0-2.02.34-3.36h-2.52q-.34-1.43-.34-3.36 0-2.02.34-3.36h2.52q-.34-1.43-.34-3.36 0-2.02.34-3.36-.34-1.43-.34-3.36 0-2.02.34-3.36-.34-1.43-.34-3.36 0-2.02.34-3.36h6.72q.33 1.34.33 3.36 0 1.93-.33 3.36"></path><rect width="27.55" height="33.6" x="-13.78" y="-16.8" fill="none" rx="0" ry="0" transform="translate(437.24 189.14)"></rect><path d="M483.78 178.56q.33 1.34.33 3.36 0 1.93-.33 3.36h-6.72q-.34-1.43-.34-3.36 0-2.02.34-3.36h-5.88q.33 1.34.33 3.36 0 1.93-.33 3.36h-2.52q.33 1.34.33 3.36 0 1.93-.33 3.36.33 1.34.33 3.36 0 1.93-.33 3.36h5.04q.33 1.34.33 3.36 0 1.93-.33 3.36h-16.8q-.34-1.43-.34-3.36 0-2.02.34-3.36h5.04q-.34-1.43-.34-3.36 0-2.02.34-3.36-.34-1.43-.34-3.36 0-2.02.34-3.36-.34-1.43-.34-3.36 0-2.02.34-3.36h-5.04q-.34-1.43-.34-3.36 0-2.02.34-3.36h8.4q.33 1.34.33 3.36 0 1.93-.33 3.36h3.36q-.34-1.43-.34-3.36 0-2.02.34-3.36h12.6q.33 1.34.33 3.36 0 1.93-.33 3.36z"></path><rect width="27.55" height="33.6" x="-13.78" y="-16.8" fill="none" rx="0" ry="0" transform="translate(470.83 189.14)"></rect><path d="M517.38 192q.33 1.34.33 3.36 0 1.93-.33 3.36h-3.36q.33 1.34.33 3.36 0 1.93-.33 3.36h-16.8q-.34-1.43-.34-3.36 0-2.02.34-3.36h-3.36q-.34-1.43-.34-3.36 0-2.02.34-3.36h-3.36q-.34-1.43-.34-3.36 0-2.02.34-3.36h3.36q-.34-1.43-.34-3.36 0-2.02.34-3.36h3.36q-.34-1.43-.34-3.36 0-2.02.34-3.36h16.8q.33 1.34.33 3.36 0 1.93-.33 3.36h3.36q.33 1.34.33 3.36 0 1.93-.33 3.36h-6.72q-.34-1.43-.34-3.36 0-2.02.34-3.36h-10.08q.33 1.34.33 3.36 0 1.93-.33 3.36h-3.36q.33 1.34.33 3.36 0 1.93-.33 3.36h3.36q.33 1.34.33 3.36 0 1.93-.33 3.36h10.08q-.34-1.43-.34-3.36 0-2.02.34-3.36Z"></path><rect width="27.55" height="33.6" x="-13.78" y="-16.8" fill="none" rx="0" ry="0" transform="translate(504.44 189.14)"></rect><path d="M551.31 181.92q0 1.93-.33 3.36.33 1.34.33 3.36 0 1.93-.33 3.36h-17.64q.33 1.34.33 3.36 0 1.93-.33 3.36h14.28q.33 1.34.33 3.36 0 1.93-.33 3.36h-16.8q-.34-1.43-.34-3.36 0-2.02.34-3.36h-4.2q-.34-1.43-.34-3.36 0-2.02.34-3.36h-2.52q-.34-1.43-.34-3.36 0-2.02.34-3.36h2.52q-.34-1.43-.34-3.36 0-2.02.34-3.36h4.2q-.34-1.43-.34-3.36 0-2.02.34-3.36h16.8q.33 1.34.33 3.36 0 1.93-.33 3.36h3.36q.33 1.34.33 3.36m-7.05 3.36q-.34-1.43-.34-3.36 0-2.02.34-3.36h-10.92q.33 1.34.33 3.36 0 1.93-.33 3.36z"></path><rect width="27.55" height="33.6" x="-13.78" y="-16.8" fill="none" rx="0" ry="0" transform="translate(538.03 189.14)"></rect><path d="M355.024 71.625V3.33H5.686v349.338h349.338v-68.294h-5.688v62.606H11.374V9.019h337.962v62.606z"></path></svg></svg>